<?xml version="1.0" encoding="utf-8"?>
<!-- Generator: Adobe Illustrator 18.0.0, SVG Export Plug-In . SVG Version: 6.00 Build 0)  -->
<!DOCTYPE svg PUBLIC "-//W3C//DTD SVG 1.1//EN" "http://www.w3.org/Graphics/SVG/1.1/DTD/svg11.dtd">
<svg version="1.1" id="Layer_1" xmlns="http://www.w3.org/2000/svg" xmlns:xlink="http://www.w3.org/1999/xlink" x="0px" y="0px"
	 viewBox="0 0 512 512" enable-background="new 0 0 512 512" xml:space="preserve">
<g id="Symbols_2_">
	<g id="button_not_drawer" transform="translate(-12.000000, -39.000000)">
		<g id="Page-1" transform="translate(12.247559, 39.018242)">
			<path id="Fill-1_1_" d="M308.2,378.1H203.4c6.1,23.3,27.1,40.7,52.4,40.7S302,401.5,308.2,378.1L308.2,378.1z M406.8,364.6
				c-19.7-32.4-56-99-56-149.3v-13.6c0-52.6-25-108.6-95-108.6s-95,56-95,108.6v13.6c0,50.3-36.3,116.9-56,149.3H406.8z
				 M429.5,391.7h-96.9c-11.2,31.6-41.3,54.3-76.8,54.3c-35.4,0-65.5-22.7-76.8-54.3H82.1c-15.9,0-21.2-10.6-11.7-23.8
				c0,0,63.2-94.1,63.2-152.7v-13.6c0-73.6,40.7-135.7,122.1-135.7s122.1,62.1,122.1,135.7v13.6c0,58.5,63.2,152.7,63.2,152.7
				C450.5,381.1,445.4,391.7,429.5,391.7L429.5,391.7z"/>
		</g>
	</g>
</g>
</svg>
