<?xml version="1.0" encoding="utf-8"?>
<!-- Generator: Adobe Illustrator 18.0.0, SVG Export Plug-In . SVG Version: 6.00 Build 0)  -->
<!DOCTYPE svg PUBLIC "-//W3C//DTD SVG 1.1//EN" "http://www.w3.org/Graphics/SVG/1.1/DTD/svg11.dtd">
<svg version="1.1" id="Layer_1" xmlns="http://www.w3.org/2000/svg" xmlns:xlink="http://www.w3.org/1999/xlink" x="0px" y="0px"
	 viewBox="0 0 512 512" enable-background="new 0 0 512 512" xml:space="preserve">
<path d="M446,142v266c0,21-17,38-38,38H104c-21,0-38-17-38-38V142c0-21,17-38,38-38h38V78.7c0-6.9,5.7-12.7,12.7-12.7
	c6.9,0,12.7,5.7,12.7,12.7V104h177.3V78.7c0-6.9,5.7-12.7,12.7-12.7c6.9,0,12.7,5.7,12.7,12.7V104h38C429,104,446,121,446,142z
	 M91.3,142v38h329.3v-38c0-6.9-5.7-12.7-12.7-12.7h-38V142c0,6.9-5.7,12.7-12.7,12.7c-6.9,0-12.7-5.7-12.7-12.7v-12.7H167.3V142
	c0,6.9-5.7,12.7-12.7,12.7c-6.9,0-12.7-5.7-12.7-12.7v-12.7h-38C97.1,129.3,91.3,135.1,91.3,142z M91.3,294h101.3V192.7H91.3V294z
	 M192.7,420.7v-114H91.3V408c0,6.9,5.7,12.7,12.7,12.7H192.7z M205.3,294h101.3V192.7H205.3V294z M205.3,420.7h101.3v-114H205.3
	V420.7z M319.3,294h101.3V192.7H319.3V294z M420.7,408V306.7H319.3v114H408C414.9,420.7,420.7,414.9,420.7,408z"/>
</svg>
