<?xml version="1.0" encoding="utf-8"?>
<!-- Generator: Adobe Illustrator 18.0.0, SVG Export Plug-In . SVG Version: 6.00 Build 0)  -->
<!DOCTYPE svg PUBLIC "-//W3C//DTD SVG 1.1//EN" "http://www.w3.org/Graphics/SVG/1.1/DTD/svg11.dtd">
<svg version="1.1" id="Layer_1" xmlns="http://www.w3.org/2000/svg" xmlns:xlink="http://www.w3.org/1999/xlink" x="0px" y="0px"
	 viewBox="0 0 512 512" enable-background="new 0 0 512 512" xml:space="preserve">
<g>
	<g id="Line">
		<rect x="146.2" y="379.5" width="29.7" height="44.5"/>
	</g>
	<g id="Line_1_">
		<rect x="209.5" y="379.5" width="29.7" height="44.5"/>
	</g>
	<g id="Line_2_">
		<rect x="272.8" y="379.5" width="29.7" height="44.5"/>
	</g>
	<g id="Line_3_">
		<rect x="336.2" y="379.5" width="29.7" height="44.5"/>
	</g>
	<g id="Shape_2_">
		<path d="M372.4,183.7C361.6,129,313.6,88,256,88c-45.8,0-85.5,26-105.3,64C103,157.1,66,197.4,66,246.4c0,52.4,42.6,95,95,95
			h205.8c43.7,0,79.2-35.5,79.2-79.2C446,220.4,413.5,186.5,372.4,183.7L372.4,183.7z M366.8,309.7H161c-35,0-63.3-28.3-63.3-63.3
			S126,183,161,183h11.2c10.4-36.6,43.9-63.3,83.8-63.3c48.1,0,87.1,38.9,87.1,87.1v7.9h23.8c26.3,0,47.5,21.2,47.5,47.5
			S393.1,309.7,366.8,309.7L366.8,309.7z"/>
	</g>
</g>
</svg>
