<?xml version="1.0" encoding="utf-8"?>
<!-- Generator: Adobe Illustrator 18.0.0, SVG Export Plug-In . SVG Version: 6.00 Build 0)  -->
<!DOCTYPE svg PUBLIC "-//W3C//DTD SVG 1.1//EN" "http://www.w3.org/Graphics/SVG/1.1/DTD/svg11.dtd">
<svg version="1.1" id="Layer_1" xmlns="http://www.w3.org/2000/svg" xmlns:xlink="http://www.w3.org/1999/xlink" x="0px" y="0px"
	 viewBox="0 0 512 512" enable-background="new 0 0 512 512" xml:space="preserve">
<g>
	<path d="M22.2,83H6v13h11.4c2.8,0,4.6,1.6,4.6,4.4v307.4c0,2.8-1.8,6.2-4.6,6.2H6v15h16.2h64.3H102v-15H92c-2.8,0-5-3.4-5-6.2
		V100.4c0-2.8,2.1-4.4,5-4.4h10V83H86.5H22.2z"/>
	<path d="M506,284.3c0-40.2-39-69.7-97-84.8v-99.1c0-2.8,2.9-4.4,5.8-4.4h9.2V83h-14.7H345h-17v13h12.2c2.8,0,4.8,1.6,4.8,4.4v88.7
		c-12-0.9-22.9-1.3-34.9-1.3c-108.5,0-197,36-197,96.5c0,52.2,65.8,86.2,152.8,94.5V370c-54-13.7-93.6-49.4-93.6-70.3
		c0-26.3,62.4-47.6,139.2-47.6c11.5,0,23.4,0.3,33.4,0.8v154.8c0,2.8-2,6.2-4.8,6.2H328v15h17h64.3H424v-15h-9.2
		c-2.8,0-5.8-3.4-5.8-6.2v-38.6C467,353.9,506,324.5,506,284.3z M450.5,299.7c0,15.2-16.5,34.4-41.5,49.8v-87.1
		C434,269.8,450.5,281.8,450.5,299.7z"/>
</g>
</svg>
