<?xml version="1.0" encoding="utf-8"?>
<!-- Generator: Adobe Illustrator 18.0.0, SVG Export Plug-In . SVG Version: 6.00 Build 0)  -->
<!DOCTYPE svg PUBLIC "-//W3C//DTD SVG 1.1//EN" "http://www.w3.org/Graphics/SVG/1.1/DTD/svg11.dtd">
<svg version="1.1" id="Layer_1" xmlns="http://www.w3.org/2000/svg" xmlns:xlink="http://www.w3.org/1999/xlink" x="0px" y="0px"
	 viewBox="0 0 512 512" enable-background="new 0 0 512 512" xml:space="preserve">
<g id="Symbols_1_">
	<g id="Object_x2F_date_x5F_time-Copy" transform="translate(-69.000000, -33.000000)">
		<g id="Group-5" transform="translate(69.000000, 33.000000)">
			<path id="Fill-1" d="M256,422.8c-44.6,0-80.9-36.1-80.9-80.4c0-28.4,15.4-55,40.2-69.4l11.5-6.7V253V118.2c0-16,13.1-29,29.1-29
				s29.1,13,29.1,29V253v13.3l11.5,6.7c24.8,14.4,40.2,41,40.2,69.4C336.9,386.7,300.6,422.8,256,422.8 M308.5,253V118.2
				C308.5,89.4,285,66,256,66s-52.5,23.4-52.5,52.2V253c-30.9,18-51.7,51.2-51.7,89.4c0,57.2,46.6,103.6,104.2,103.6
				s104.2-46.4,104.2-103.6C360.2,304.2,339.4,271,308.5,253"/>
			<path id="Fill-3" d="M286.3,347.1l-27.2,27c-0.6,0.6-1.3,1-2,1.3c0,0-0.1,0-0.1,0c-0.7,0.3-1.4,0.4-2.2,0.4
				c-0.8,0-1.5-0.2-2.2-0.4c0,0,0,0-0.1,0c-0.8-0.3-1.4-0.8-2-1.3l-27.1-27c-2.4-2.4-2.2-6.3,0.2-8.6c2.4-2.4,6.7-2.4,9.1,0
				l17.5,16.6v-38.9c0-3.4,2.4-6.1,5.8-6.1c3.4,0,5.8,2.7,5.8,6.1v38.9l16.2-16.6c2.4-2.4,5.8-2.4,8.2,0
				C288.7,340.9,288.7,344.8,286.3,347.1 M267.4,285.8v-94.1c0-6.4-5.2-11.6-11.7-11.6c-6.4,0-11.7,5.2-11.7,11.6v94.1
				c-26.5,5.4-46.4,28.7-46.4,56.6c0,31.9,26,57.8,58.1,57.8s58.1-25.9,58.1-57.8C313.9,314.4,293.9,291.1,267.4,285.8"/>
		</g>
	</g>
</g>
</svg>
