<?xml version="1.0" encoding="utf-8"?>
<!-- Generator: Adobe Illustrator 18.0.0, SVG Export Plug-In . SVG Version: 6.00 Build 0)  -->
<!DOCTYPE svg PUBLIC "-//W3C//DTD SVG 1.1//EN" "http://www.w3.org/Graphics/SVG/1.1/DTD/svg11.dtd">
<svg version="1.1" id="Layer_1" xmlns="http://www.w3.org/2000/svg" xmlns:xlink="http://www.w3.org/1999/xlink" x="0px" y="0px"
	 viewBox="0 0 512 512" enable-background="new 0 0 512 512" xml:space="preserve">
<g>
	<path d="M335.3,286.3c-8.2,0-16.2-1.4-23.7-5c-9.4-4.6-16.4-11.7-21.3-20.8c-3.9-7.2-5.6-15-5.9-23.1c-0.3-7.1,0.3-14.2,2.6-20.9
		c5.3-15.4,15.5-26,30.9-31.4c7.1-2.5,14.4-3.1,21.8-2.7c6.3,0.3,12.5,1.4,18.3,4c13.1,5.7,21.9,15.6,26.6,29
		c2.7,7.6,3.3,15.5,2.8,23.4c-0.5,7.2-2.1,14.2-5.5,20.6c-7.6,14.2-19.3,23-35.2,26C342.9,286,339.1,286.3,335.3,286.3z
		 M362.7,234.3c-0.3-2.8-0.5-5.7-1-8.5c-1.1-6-3.8-11.2-8.1-15.6c-4.6-4.6-10.2-6.9-16.6-7.1c-6.2-0.2-11.9,1.3-16.8,5.2
		c-4.1,3.3-7,7.5-8.8,12.5c-2.6,7.4-2.9,14.9-1.3,22.5c1.3,6.2,4.2,11.7,9,15.9c6.9,6.2,14.9,7.4,23.6,5.3c6.8-1.6,11.6-6.1,15.2-12
		C361.3,247,362.4,240.8,362.7,234.3z"/>
	<path d="M148.9,232.1c0,17.6,0,35,0,52.5c-7.8,0-15.5,0-23.4,0c0-0.3,0-0.6,0-0.9c0-33.4,0-66.8,0-100.3c0-0.7,0.2-0.9,0.9-1.1
		c1.7-0.5,2.8,0,4,1.2c14,12.7,28,25.4,42.1,38.1c5.2,4.7,10.4,9.4,15.6,14.1c0.1,0.1,0.2,0.2,0.5,0.4c0-17.4,0-34.7,0-52.1
		c7.8,0,15.6,0,23.4,0c0,34.1,0,68.1,0,102.2c-0.7,0.1-1.4,0.3-2.1,0.3c-0.3,0-0.6-0.2-0.8-0.5c-4.7-4.2-9.3-8.4-14-12.5
		c-15.2-13.6-30.3-27.2-45.5-40.9C149.5,232.5,149.2,232.3,148.9,232.1z"/>
	<path d="M432.9,232c0,17.6,0,35.1,0,52.5c-7.8,0-15.5,0-23.3,0c0-0.3,0-0.6,0-0.9c0-33.4,0-66.9,0-100.3c0-0.7,0.2-0.9,0.9-1.1
		c1.7-0.5,2.8,0,4.1,1.2c14,12.7,28,25.4,42,38c5.2,4.7,10.5,9.5,15.8,14.2c0.1,0.1,0.2,0.1,0.4,0.3c0-17.4,0-34.7,0-52.1
		c7.8,0,15.6,0,23.4,0c0,34.1,0,68.1,0,102.3c-0.7,0.1-1.3,0.3-2,0.3c-0.3,0-0.7-0.2-1-0.5c-4.2-3.7-8.3-7.4-12.5-11.2
		c-15.7-14.1-31.3-28.1-47-42.2C433.4,232.4,433.2,232.3,432.9,232z"/>
	<path d="M39.4,183.9c0,0.4,0,0.8,0,1.2c0,19.3,0,38.7,0,58c0,4,0.6,8,2.2,11.8c2.2,5.2,6.2,8.4,11.7,9.5c3.7,0.8,7.4,0.8,11.1-0.1
		c6.4-1.5,10.3-5.6,12.1-11.8c1-3.3,1.4-6.6,1.4-10.1c0-19.1,0-38.3,0-57.4c0-0.4,0-0.7,0-1.2c7.8,0,15.6,0,23.4,0
		c0,0.3,0,0.6,0,0.9c0,20,0,39.9,0,59.9c0,7.1-1.1,14.1-4.2,20.6c-4,8.6-10.6,14.3-19.3,17.7c-5.5,2.1-11.3,3-17.2,3.2
		c-6.6,0.2-13.1-0.3-19.4-2.3c-12.4-3.9-20.1-12.3-23.5-24.8c-1.3-4.7-1.8-9.5-1.8-14.4c0-19.9,0-39.9,0-59.8c0-0.4,0-0.7,0-1.1
		C23.8,183.9,31.6,183.9,39.4,183.9z"/>
	<path d="M238.3,183.9c7.8,0,15.5,0,23.3,0c0,33.6,0,67.1,0,100.7c-7.8,0-15.5,0-23.3,0C238.3,251,238.3,217.5,238.3,183.9z"/>
	<path d="M143,366.6c0-12.9,0-25.7,0-38.7c2.6-0.2,5.1-0.4,7.6-0.5c4-0.2,8.1-0.2,12.1,0.7c5.9,1.3,10.7,4.2,13.7,9.6
		c1.8,3.3,2.3,6.8,2.1,10.5c-0.3,5.4-2.2,10.1-6.3,13.8c-3,2.7-6.7,4-10.6,4.6c-4.5,0.8-9,0.5-13.5,0.3
		C146.4,366.9,144.7,366.7,143,366.6z M152.1,335.7c0,7.8,0,15.4,0,23.1c3.2,0.3,6.4,0.5,9.5-0.5c3-0.9,5-2.9,6.2-5.8
		c1-2.5,1.2-5,0.8-7.7c-0.5-3.6-2.3-6.3-5.6-7.9C159.5,335.3,155.9,335.4,152.1,335.7z"/>
	<path d="M230.2,346.4c0,6.9,0,13.6,0,20.4c-3.1,0-6,0-9.1,0c0-13.2,0-26.4,0-39.7c0.7-0.3,1.3-0.3,1.9,0.3
		c7.3,6.6,14.6,13.2,21.9,19.8c0.2,0.2,0.4,0.3,0.7,0.6c0-6.8,0-13.5,0-20.2c3.1,0,6.1,0,9.1,0c0,0.3,0,0.6,0,0.9
		c0,12.7,0,25.3,0,38c0,0.3-0.2,0.6-0.3,1c-0.4-0.1-0.9-0.1-1.2-0.4c-7.1-6.3-14.1-12.6-21.1-18.9
		C231.6,347.7,231,347.1,230.2,346.4z"/>
	<path d="M346.7,366.8c-3.1,0-6.1,0-9.1,0c0-13,0-25.9,0-38.9c6-0.4,11.9-1.2,17.9,0c4.6,0.9,8.1,3.3,9.9,7.8
		c2.2,5.7,0.1,11.9-5.1,15.5c-0.3,0.2-0.5,0.3-0.8,0.6c3,5,6.1,10,9.1,15c-0.3,0-0.5,0.1-0.8,0.1c-2.9,0-5.9,0-8.8,0
		c-0.6,0-0.9-0.2-1.1-0.7c-2-3.8-4-7.6-5.9-11.4c-0.3-0.6-0.6-0.8-1.2-0.7c-1.3,0.1-2.6,0-4.1,0
		C346.7,358.4,346.7,362.6,346.7,366.8z M346.8,346.6c2.3,0.2,4.6,0.4,6.7-0.6c2.2-1,3.4-3,3.2-5.7c-0.1-2.1-1.5-3.7-3.8-4.4
		c-2-0.6-4.1-0.4-6.2-0.1C346.8,339.4,346.8,342.9,346.8,346.6z"/>
	<path d="M211.8,327.7c0,2.7,0,5.5,0,8.3c-5.2,0-10.4,0-15.6,0c0,2.3,0,4.6,0,7c4.7,0,9.5,0,14.2,0c0,2.7,0,5.3,0,7.9
		c-4.7,0-9.4,0-14.2,0c0,2.6,0,5,0,7.6c5.2,0,10.4,0,15.6,0c0,2.8,0,5.5,0,8.3c-8.2,0-16.5,0-24.8,0c0-13,0-26.1,0-39.1
		C195.2,327.7,203.5,327.7,211.8,327.7z"/>
	<path d="M303.4,366.8c0-13.1,0-26.1,0-39.2c8.3,0,16.5,0,24.8,0c0,2.7,0,5.5,0,8.3c-5.2,0-10.4,0-15.6,0c0,2.4,0,4.7,0,7
		c4.7,0,9.5,0,14.2,0c0,2.7,0,5.3,0,7.9c-4.7,0-9.5,0-14.2,0c0,2.6,0,5,0,7.6c5.2,0,10.4,0,15.6,0c0,2.8,0,5.6,0,8.3
		C319.9,366.8,311.7,366.8,303.4,366.8z"/>
	<path d="M298.4,327.6c-1.1,2.4-2.2,4.6-3.2,6.9c-5.1,10.7-10.1,21.4-15.2,32.1c-0.2,0.4-0.3,0.6-0.8,0.6c-0.5,0-0.7-0.3-0.9-0.6
		c-6-12.8-12.1-25.5-18.1-38.3c-0.1-0.2-0.2-0.4-0.3-0.6c0.2,0,0.2-0.1,0.3-0.1c3.2,0,6.3,0,9.5,0c0.6,0,0.7,0.3,0.9,0.7
		c2.7,6.5,5.5,13.1,8.3,19.6c0.1,0.2,0.2,0.4,0.3,0.8c0.2-0.4,0.3-0.7,0.5-1c2.7-6.4,5.4-12.8,8-19.1c0.3-0.7,0.7-1,1.5-1
		C292.2,327.6,295.2,327.6,298.4,327.6z"/>
</g>
</svg>
