<?xml version="1.0" encoding="utf-8"?>
<!-- Generator: Adobe Illustrator 18.0.0, SVG Export Plug-In . SVG Version: 6.00 Build 0)  -->
<!DOCTYPE svg PUBLIC "-//W3C//DTD SVG 1.1//EN" "http://www.w3.org/Graphics/SVG/1.1/DTD/svg11.dtd">
<svg version="1.1" id="Layer_1" xmlns="http://www.w3.org/2000/svg" xmlns:xlink="http://www.w3.org/1999/xlink" x="0px" y="0px"
	 viewBox="0 0 512 512" enable-background="new 0 0 512 512" xml:space="preserve">
<path id="Combined-Shape" d="M221,150.7c0,46.8-29.3,84.7-65.3,84.7s-65.3-37.9-65.3-84.7c0-46.8,29.3-84.7,65.3-84.7
	S221,103.9,221,150.7z M398.4,150.7c0,46.8-29.3,84.7-65.3,84.7s-65.3-37.9-65.3-84.7c0-46.8,29.3-84.7,65.3-84.7
	S398.4,103.9,398.4,150.7z M174.1,282.8c78.9,0,142.9,37.9,142.9,84.7V446H31.2v-78.5C31.2,320.7,95.2,282.8,174.1,282.8z
	 M337.9,282.8c78.9,0,142.9,37.9,142.9,84.7V446H355.7v-69.1c0-57.2-24.2-75.1-48.6-93.1C314.2,283.1,330.5,282.8,337.9,282.8z"/>
</svg>
